<?xml version="1.0" standalone="no"?>
<!DOCTYPE svg PUBLIC "-//W3C//DTD SVG 20010904//EN"
 "http://www.w3.org/TR/2001/REC-SVG-20010904/DTD/svg10.dtd">
<svg version="1.0" xmlns="http://www.w3.org/2000/svg"
 width="327.000000pt" height="327.000000pt" viewBox="0 0 327.000000 327.000000"
 preserveAspectRatio="xMidYMid meet">
<metadata>
Created by potrace 1.11, written by Peter Selinger 2001-2013
</metadata>
<g transform="translate(0.000000,327.000000) scale(0.100000,-0.100000)"
fill="#000000" stroke="none">
<path d="M1530 3238 c-130 -55 -386 -188 -770 -401 -129 -72 -246 -137 -260
-144 -14 -8 -43 -25 -65 -39 -22 -13 -47 -27 -55 -31 -57 -25 -156 -113 -195
-173 -57 -90 -56 -76 -53 -831 l3 -694 29 -52 c50 -91 112 -142 315 -262 105
-61 195 -111 201 -111 5 0 10 -4 10 -10 0 -5 4 -10 9 -10 5 0 42 -19 83 -43
235 -139 645 -359 774 -415 28 -12 66 -21 85 -20 51 4 357 161 719 368 107 61
218 124 245 140 89 49 329 192 360 214 51 35 104 98 133 156 l27 55 3 690 c3
685 3 690 -19 750 -21 60 -63 120 -122 175 -24 23 -198 128 -322 196 -11 6
-36 20 -55 31 -19 11 -62 35 -95 53 -33 18 -78 43 -100 55 -22 12 -74 40 -115
62 -41 22 -95 52 -120 65 -94 52 -338 176 -415 211 -116 52 -145 54 -235 15z"/>
</g>
</svg>
